<svg width="15" height="14" viewBox="0 0 15 14" fill="none" xmlns="http://www.w3.org/2000/svg">
<rect y="3.71594" width="1.25121" height="5.2551" transform="rotate(-45 0 3.71594)" fill="#C4C4C4"/>
<rect x="0.88475" y="4.60065" width="1.25121" height="5.2551" transform="rotate(-135 0.88475 4.60065)" fill="#C4C4C4"/>
<rect x="1.50195" y="4.71277" width="1.50195" height="7.50974" transform="rotate(-90 1.50195 4.71277)" fill="#C4C4C4"/>
<rect x="3.00389" y="13.7245" width="1.50195" height="6.00779" transform="rotate(-90 3.00389 13.7245)" fill="#C4C4C4"/>
<mask id="path-5-inside-1_2_132" fill="white">
<path d="M8.63619 13.7244C10.13 13.7244 11.5626 13.1706 12.6188 12.1848C13.6751 11.1989 14.2685 9.86183 14.2685 8.46763C14.2685 7.07344 13.6751 5.73635 12.6188 4.7505C11.5626 3.76466 10.13 3.21082 8.63619 3.21082L8.63619 4.64955C9.72114 4.64955 10.7617 5.05181 11.5288 5.76784C12.296 6.48387 12.727 7.45501 12.727 8.46763C12.727 9.48025 12.296 10.4514 11.5288 11.1674C10.7616 11.8835 9.72114 12.2857 8.63619 12.2857L8.63619 13.7244Z"/>
</mask>
<path d="M8.63619 13.7244C10.13 13.7244 11.5626 13.1706 12.6188 12.1848C13.6751 11.1989 14.2685 9.86183 14.2685 8.46763C14.2685 7.07344 13.6751 5.73635 12.6188 4.7505C11.5626 3.76466 10.13 3.21082 8.63619 3.21082L8.63619 4.64955C9.72114 4.64955 10.7617 5.05181 11.5288 5.76784C12.296 6.48387 12.727 7.45501 12.727 8.46763C12.727 9.48025 12.296 10.4514 11.5288 11.1674C10.7616 11.8835 9.72114 12.2857 8.63619 12.2857L8.63619 13.7244Z" fill="#C4C4C4" stroke="#C4C4C4" stroke-width="2" mask="url(#path-5-inside-1_2_132)"/>
</svg>
