<svg width="18" height="18" viewBox="0 0 18 18" fill="none" xmlns="http://www.w3.org/2000/svg">
<path d="M9 1.5C8.40866 1.5 7.83849 1.57479 7.29418 1.70142C7.18068 1.72791 7.07821 1.789 7.00093 1.87625C6.92365 1.9635 6.87538 2.0726 6.86279 2.18848L6.7434 3.27686C6.70436 3.63351 6.49834 3.94907 6.18749 4.12866C5.87727 4.3079 5.50073 4.32775 5.17236 4.18359H5.17163L4.17187 3.74341C4.06523 3.69648 3.94666 3.68382 3.83252 3.70717C3.71837 3.73053 3.6143 3.78874 3.53466 3.87378C2.75748 4.70235 2.161 5.70565 1.82226 6.82544C1.78852 6.93689 1.79019 7.05607 1.82706 7.16653C1.86392 7.27699 1.93416 7.37329 2.02807 7.44214L2.91503 8.09253C3.20467 8.30547 3.37499 8.64105 3.37499 9C3.37499 9.35914 3.20467 9.695 2.91503 9.90747L2.02807 10.5571C1.93416 10.626 1.86392 10.7223 1.82706 10.8327C1.79019 10.9432 1.78852 11.0624 1.82226 11.1738C2.16096 12.2935 2.75697 13.2975 3.53466 14.1262C3.61439 14.2111 3.7185 14.2692 3.83264 14.2924C3.94677 14.3157 4.0653 14.3029 4.17187 14.2559L5.17163 13.8157C5.50015 13.6712 5.87706 13.692 6.18749 13.8713C6.49834 14.0509 6.70436 14.3665 6.7434 14.7231L6.86279 15.8115C6.87547 15.9272 6.9237 16.036 7.00083 16.1231C7.07796 16.2102 7.18019 16.2713 7.29345 16.2979C7.83801 16.4249 8.40866 16.5 9 16.5C9.59133 16.5 10.1615 16.4252 10.7058 16.2986C10.8193 16.2721 10.9218 16.211 10.9991 16.1237C11.0763 16.0365 11.1246 15.9274 11.1372 15.8115L11.2566 14.7231C11.2956 14.3665 11.5017 14.0509 11.8125 13.8713C12.1227 13.6921 12.4993 13.6715 12.8276 13.8157L13.8281 14.2559C13.9347 14.3029 14.0532 14.3157 14.1674 14.2924C14.2815 14.2692 14.3856 14.2111 14.4653 14.1262C15.2425 13.2977 15.839 12.2936 16.1777 11.1738C16.2115 11.0624 16.2098 10.9432 16.1729 10.8327C16.1361 10.7223 16.0658 10.626 15.9719 10.5571L15.085 9.90747C14.7953 9.695 14.625 9.35914 14.625 9C14.625 8.64086 14.7953 8.305 15.085 8.09253L15.9719 7.44287C16.0658 7.37402 16.1361 7.27772 16.1729 7.16726C16.2098 7.0568 16.2115 6.93762 16.1777 6.82617C15.839 5.70638 15.2425 4.70235 14.4653 3.87378C14.3856 3.78886 14.2815 3.73079 14.1674 3.70757C14.0532 3.68435 13.9347 3.69712 13.8281 3.74414L12.8276 4.18433C12.4993 4.32848 12.1227 4.3079 11.8125 4.12866C11.5017 3.94907 11.2956 3.63351 11.2566 3.27686L11.1372 2.18848C11.1245 2.07283 11.0763 1.96397 10.9992 1.87687C10.922 1.78977 10.8198 1.72873 10.7065 1.70215C10.162 1.57506 9.59133 1.5 9 1.5ZM9 2.625C9.36536 2.625 9.71622 2.69058 10.0679 2.75244L10.1382 3.39917C10.2161 4.11127 10.6301 4.74463 11.25 5.10278C11.8703 5.46118 12.6255 5.50238 13.281 5.21411L13.8757 4.95264C14.3324 5.50103 14.694 6.12044 14.9465 6.79907L14.4192 7.18579C13.8418 7.60932 13.5 8.28364 13.5 9C13.5 9.71636 13.8418 10.3907 14.4192 10.8142L14.9465 11.2009C14.694 11.8796 14.3324 12.499 13.8757 13.0474L13.281 12.7859C12.6255 12.4976 11.8703 12.5388 11.25 12.8972C10.6301 13.2554 10.2161 13.8887 10.1382 14.6008L10.0679 15.2476C9.71625 15.3092 9.36518 15.375 9 15.375C8.63463 15.375 8.28377 15.3094 7.93212 15.2476L7.86181 14.6008C7.78386 13.8887 7.3699 13.2554 6.74999 12.8972C6.12968 12.5388 5.37446 12.4976 4.71899 12.7859L4.12426 13.0474C3.66749 12.4991 3.30597 11.8796 3.05346 11.2009L3.5808 10.8142C4.15817 10.3907 4.49999 9.71636 4.49999 9C4.49999 8.28364 4.15789 7.60889 3.5808 7.18506L3.05346 6.79834C3.30612 6.11945 3.66804 5.50044 4.12499 4.9519L4.71899 5.21338C5.37446 5.50165 6.12968 5.46118 6.74999 5.10278C7.3699 4.74463 7.78386 4.11127 7.86181 3.39917L7.93212 2.75244C8.28374 2.69075 8.63481 2.625 9 2.625ZM9 6C7.3498 6 5.99999 7.34981 5.99999 9C5.99999 10.6502 7.3498 12 9 12C10.6502 12 12 10.6502 12 9C12 7.34981 10.6502 6 9 6ZM9 7.125C10.0422 7.125 10.875 7.9578 10.875 9C10.875 10.0422 10.0422 10.875 9 10.875C7.9578 10.875 7.12499 10.0422 7.12499 9C7.12499 7.9578 7.9578 7.125 9 7.125Z" fill="#C4C4C4"/>
</svg>
